<mxfile host="app.diagrams.net" agent="Mozilla/5.0 (Windows NT 10.0; Win64; x64) AppleWebKit/537.36 (KHTML, like Gecko) Chrome/133.0.0.0 Safari/537.36" version="26.0.11">
  <diagram name="Page-1" id="zzhzy3CKQjJed-6w7SOW">
    <mxGraphModel dx="1960" dy="1068" grid="0" gridSize="10" guides="1" tooltips="1" connect="1" arrows="1" fold="1" page="0" pageScale="1" pageWidth="850" pageHeight="1100" math="0" shadow="0">
      <root>
        <mxCell id="0" />
        <mxCell id="1" parent="0" />
        <mxCell id="N02gv27HB-VVJ6MpC-x5-6" style="edgeStyle=none;curved=1;rounded=0;orthogonalLoop=1;jettySize=auto;html=1;entryX=0;entryY=0.5;entryDx=0;entryDy=0;fontSize=12;startSize=8;endSize=8;" edge="1" parent="1" source="N02gv27HB-VVJ6MpC-x5-1" target="N02gv27HB-VVJ6MpC-x5-5">
          <mxGeometry relative="1" as="geometry" />
        </mxCell>
        <mxCell id="N02gv27HB-VVJ6MpC-x5-7" value="queries" style="edgeLabel;html=1;align=center;verticalAlign=middle;resizable=0;points=[];fontSize=12;" vertex="1" connectable="0" parent="N02gv27HB-VVJ6MpC-x5-6">
          <mxGeometry x="-0.0552" y="1" relative="1" as="geometry">
            <mxPoint as="offset" />
          </mxGeometry>
        </mxCell>
        <mxCell id="N02gv27HB-VVJ6MpC-x5-1" value="Users microservice" style="rounded=0;whiteSpace=wrap;html=1;" vertex="1" parent="1">
          <mxGeometry x="26" y="211" width="120" height="60" as="geometry" />
        </mxCell>
        <mxCell id="N02gv27HB-VVJ6MpC-x5-8" style="edgeStyle=none;curved=1;rounded=0;orthogonalLoop=1;jettySize=auto;html=1;entryX=1;entryY=0.5;entryDx=0;entryDy=0;fontSize=12;startSize=8;endSize=8;" edge="1" parent="1" source="N02gv27HB-VVJ6MpC-x5-2" target="N02gv27HB-VVJ6MpC-x5-5">
          <mxGeometry relative="1" as="geometry" />
        </mxCell>
        <mxCell id="N02gv27HB-VVJ6MpC-x5-9" value="queries" style="edgeLabel;html=1;align=center;verticalAlign=middle;resizable=0;points=[];fontSize=12;" vertex="1" connectable="0" parent="N02gv27HB-VVJ6MpC-x5-8">
          <mxGeometry x="-0.0275" y="1" relative="1" as="geometry">
            <mxPoint x="1" as="offset" />
          </mxGeometry>
        </mxCell>
        <mxCell id="N02gv27HB-VVJ6MpC-x5-2" value="Products microserv&lt;span style=&quot;color: rgba(0, 0, 0, 0); font-family: monospace; font-size: 0px; text-align: start; text-wrap-mode: nowrap;&quot;&gt;%3CmxGraphModel%3E%3Croot%3E%3CmxCell%20id%3D%220%22%2F%3E%3CmxCell%20id%3D%221%22%20parent%3D%220%22%2F%3E%3CmxCell%20id%3D%222%22%20value%3D%22Users%20microservice%22%20style%3D%22rounded%3D0%3BwhiteSpace%3Dwrap%3Bhtml%3D1%3B%22%20vertex%3D%221%22%20parent%3D%221%22%3E%3CmxGeometry%20x%3D%22167%22%20y%3D%22211%22%20width%3D%22120%22%20height%3D%2260%22%20as%3D%22geometry%22%2F%3E%3C%2FmxCell%3E%3C%2Froot%3E%3C%2FmxGraphModel%3E&lt;/span&gt;ice" style="rounded=0;whiteSpace=wrap;html=1;" vertex="1" parent="1">
          <mxGeometry x="758" y="206" width="120" height="60" as="geometry" />
        </mxCell>
        <mxCell id="N02gv27HB-VVJ6MpC-x5-10" style="edgeStyle=none;curved=1;rounded=0;orthogonalLoop=1;jettySize=auto;html=1;entryX=0.5;entryY=1;entryDx=0;entryDy=0;fontSize=12;startSize=8;endSize=8;" edge="1" parent="1" source="N02gv27HB-VVJ6MpC-x5-3" target="N02gv27HB-VVJ6MpC-x5-5">
          <mxGeometry relative="1" as="geometry" />
        </mxCell>
        <mxCell id="N02gv27HB-VVJ6MpC-x5-11" value="queries" style="edgeLabel;html=1;align=center;verticalAlign=middle;resizable=0;points=[];fontSize=12;" vertex="1" connectable="0" parent="N02gv27HB-VVJ6MpC-x5-10">
          <mxGeometry x="0.0769" y="2" relative="1" as="geometry">
            <mxPoint as="offset" />
          </mxGeometry>
        </mxCell>
        <mxCell id="N02gv27HB-VVJ6MpC-x5-12" style="edgeStyle=none;curved=1;rounded=0;orthogonalLoop=1;jettySize=auto;html=1;exitX=0;exitY=0.5;exitDx=0;exitDy=0;fontSize=12;startSize=8;endSize=8;" edge="1" parent="1" source="N02gv27HB-VVJ6MpC-x5-3" target="N02gv27HB-VVJ6MpC-x5-1">
          <mxGeometry relative="1" as="geometry" />
        </mxCell>
        <mxCell id="N02gv27HB-VVJ6MpC-x5-14" style="edgeStyle=none;curved=1;rounded=0;orthogonalLoop=1;jettySize=auto;html=1;entryX=0;entryY=0.5;entryDx=0;entryDy=0;fontSize=12;startSize=8;endSize=8;" edge="1" parent="1" source="N02gv27HB-VVJ6MpC-x5-3" target="N02gv27HB-VVJ6MpC-x5-2">
          <mxGeometry relative="1" as="geometry" />
        </mxCell>
        <mxCell id="N02gv27HB-VVJ6MpC-x5-3" value="Orders&lt;div&gt;&amp;nbsp;microserv&lt;span style=&quot;color: rgba(0, 0, 0, 0); font-family: monospace; font-size: 0px; text-align: start; text-wrap-mode: nowrap;&quot;&gt;%3CmxGraphModel%3E%3Croot%3E%3CmxCell%20id%3D%220%22%2F%3E%3CmxCell%20id%3D%221%22%20parent%3D%220%22%2F%3E%3CmxCell%20id%3D%222%22%20value%3D%22Users%20microservice%22%20style%3D%22rounded%3D0%3BwhiteSpace%3Dwrap%3Bhtml%3D1%3B%22%20vertex%3D%221%22%20parent%3D%221%22%3E%3CmxGeometry%20x%3D%22167%22%20y%3D%22211%22%20width%3D%22120%22%20height%3D%2260%22%20as%3D%22geometry%22%2F%3E%3C%2FmxCell%3E%3C%2Froot%3E%3C%2FmxGraphModel%3E&lt;/span&gt;ice&lt;/div&gt;" style="rounded=0;whiteSpace=wrap;html=1;" vertex="1" parent="1">
          <mxGeometry x="371" y="211" width="120" height="60" as="geometry" />
        </mxCell>
        <mxCell id="N02gv27HB-VVJ6MpC-x5-16" style="edgeStyle=none;curved=1;rounded=0;orthogonalLoop=1;jettySize=auto;html=1;fontSize=12;startSize=8;endSize=8;" edge="1" parent="1" source="N02gv27HB-VVJ6MpC-x5-4" target="N02gv27HB-VVJ6MpC-x5-3">
          <mxGeometry relative="1" as="geometry" />
        </mxCell>
        <mxCell id="N02gv27HB-VVJ6MpC-x5-17" style="edgeStyle=none;curved=1;rounded=0;orthogonalLoop=1;jettySize=auto;html=1;fontSize=12;startSize=8;endSize=8;" edge="1" parent="1" source="N02gv27HB-VVJ6MpC-x5-4" target="N02gv27HB-VVJ6MpC-x5-2">
          <mxGeometry relative="1" as="geometry" />
        </mxCell>
        <mxCell id="N02gv27HB-VVJ6MpC-x5-18" style="edgeStyle=none;curved=1;rounded=0;orthogonalLoop=1;jettySize=auto;html=1;entryX=0.5;entryY=1;entryDx=0;entryDy=0;fontSize=12;startSize=8;endSize=8;" edge="1" parent="1" source="N02gv27HB-VVJ6MpC-x5-4" target="N02gv27HB-VVJ6MpC-x5-1">
          <mxGeometry relative="1" as="geometry" />
        </mxCell>
        <mxCell id="N02gv27HB-VVJ6MpC-x5-4" value="Logging&lt;div&gt;&amp;nbsp;microserv&lt;span style=&quot;color: rgba(0, 0, 0, 0); font-family: monospace; font-size: 0px; text-align: start; text-wrap-mode: nowrap;&quot;&gt;%3CmxGraphModel%3E%3Croot%3E%3CmxCell%20id%3D%220%22%2F%3E%3CmxCell%20id%3D%221%22%20parent%3D%220%22%2F%3E%3CmxCell%20id%3D%222%22%20value%3D%22Users%20microservice%22%20style%3D%22rounded%3D0%3BwhiteSpace%3Dwrap%3Bhtml%3D1%3B%22%20vertex%3D%221%22%20parent%3D%221%22%3E%3CmxGeometry%20x%3D%22167%22%20y%3D%22211%22%20width%3D%22120%22%20height%3D%2260%22%20as%3D%22geometry%22%2F%3E%3C%2FmxCell%3E%3C%2Froot%3E%3C%2FmxGraphModel%3E&lt;/span&gt;ice&lt;/div&gt;" style="rounded=0;whiteSpace=wrap;html=1;" vertex="1" parent="1">
          <mxGeometry x="379" y="424" width="120" height="60" as="geometry" />
        </mxCell>
        <mxCell id="N02gv27HB-VVJ6MpC-x5-5" value="DB microservice" style="rounded=0;whiteSpace=wrap;html=1;" vertex="1" parent="1">
          <mxGeometry x="366" y="56" width="120" height="60" as="geometry" />
        </mxCell>
        <mxCell id="N02gv27HB-VVJ6MpC-x5-13" value="check user id from order&amp;nbsp;&lt;div&gt;is valid&lt;/div&gt;" style="text;html=1;align=center;verticalAlign=middle;resizable=0;points=[];autosize=1;strokeColor=none;fillColor=none;fontSize=16;" vertex="1" parent="1">
          <mxGeometry x="171" y="238" width="195" height="50" as="geometry" />
        </mxCell>
        <mxCell id="N02gv27HB-VVJ6MpC-x5-15" value="check products id from order&lt;div&gt;are valid&lt;/div&gt;" style="text;html=1;align=center;verticalAlign=middle;resizable=0;points=[];autosize=1;strokeColor=none;fillColor=none;fontSize=16;" vertex="1" parent="1">
          <mxGeometry x="514" y="238" width="221" height="50" as="geometry" />
        </mxCell>
        <mxCell id="N02gv27HB-VVJ6MpC-x5-19" value="track&lt;span style=&quot;background-color: transparent; color: light-dark(rgb(0, 0, 0), rgb(255, 255, 255));&quot;&gt;&amp;nbsp;actions&lt;/span&gt;" style="text;html=1;align=center;verticalAlign=middle;resizable=0;points=[];autosize=1;strokeColor=none;fillColor=none;fontSize=16;" vertex="1" parent="1">
          <mxGeometry x="152.5" y="344.5" width="108" height="31" as="geometry" />
        </mxCell>
        <mxCell id="N02gv27HB-VVJ6MpC-x5-20" value="track&lt;span style=&quot;background-color: transparent; color: light-dark(rgb(0, 0, 0), rgb(255, 255, 255));&quot;&gt;&amp;nbsp;actions&lt;/span&gt;" style="text;html=1;align=center;verticalAlign=middle;resizable=0;points=[];autosize=1;strokeColor=none;fillColor=none;fontSize=16;" vertex="1" parent="1">
          <mxGeometry x="330" y="341" width="108" height="31" as="geometry" />
        </mxCell>
        <mxCell id="N02gv27HB-VVJ6MpC-x5-21" value="track actions" style="text;html=1;align=center;verticalAlign=middle;resizable=0;points=[];autosize=1;strokeColor=none;fillColor=none;fontSize=16;" vertex="1" parent="1">
          <mxGeometry x="637" y="339" width="108" height="31" as="geometry" />
        </mxCell>
        <mxCell id="N02gv27HB-VVJ6MpC-x5-22" value="&lt;font style=&quot;font-size: 19px;&quot;&gt;Each microfrontend interacts with the corresponding microservice&lt;/font&gt;" style="text;html=1;align=center;verticalAlign=middle;resizable=0;points=[];autosize=1;strokeColor=none;fillColor=none;fontSize=16;" vertex="1" parent="1">
          <mxGeometry x="-136" y="572" width="568" height="35" as="geometry" />
        </mxCell>
        <mxCell id="N02gv27HB-VVJ6MpC-x5-23" value="" style="rounded=0;whiteSpace=wrap;html=1;" vertex="1" parent="1">
          <mxGeometry x="219" y="624" width="681" height="324" as="geometry" />
        </mxCell>
        <mxCell id="N02gv27HB-VVJ6MpC-x5-25" value="Example of a microservice architecture:" style="text;html=1;align=center;verticalAlign=middle;resizable=0;points=[];autosize=1;strokeColor=none;fillColor=none;fontSize=16;" vertex="1" parent="1">
          <mxGeometry x="-133" y="632" width="298" height="31" as="geometry" />
        </mxCell>
        <mxCell id="N02gv27HB-VVJ6MpC-x5-36" style="edgeStyle=none;curved=1;rounded=0;orthogonalLoop=1;jettySize=auto;html=1;fontSize=12;startSize=8;endSize=8;" edge="1" parent="1" source="N02gv27HB-VVJ6MpC-x5-26" target="N02gv27HB-VVJ6MpC-x5-29">
          <mxGeometry relative="1" as="geometry" />
        </mxCell>
        <mxCell id="N02gv27HB-VVJ6MpC-x5-26" value="db_manager" style="rounded=0;whiteSpace=wrap;html=1;" vertex="1" parent="1">
          <mxGeometry x="241" y="644" width="120" height="60" as="geometry" />
        </mxCell>
        <mxCell id="N02gv27HB-VVJ6MpC-x5-33" style="edgeStyle=none;curved=1;rounded=0;orthogonalLoop=1;jettySize=auto;html=1;entryX=0;entryY=0.5;entryDx=0;entryDy=0;fontSize=12;startSize=8;endSize=8;" edge="1" parent="1" source="N02gv27HB-VVJ6MpC-x5-27" target="N02gv27HB-VVJ6MpC-x5-28">
          <mxGeometry relative="1" as="geometry" />
        </mxCell>
        <mxCell id="N02gv27HB-VVJ6MpC-x5-34" style="edgeStyle=none;curved=1;rounded=0;orthogonalLoop=1;jettySize=auto;html=1;entryX=0;entryY=0.5;entryDx=0;entryDy=0;fontSize=12;startSize=8;endSize=8;" edge="1" parent="1" source="N02gv27HB-VVJ6MpC-x5-27" target="N02gv27HB-VVJ6MpC-x5-31">
          <mxGeometry relative="1" as="geometry" />
        </mxCell>
        <mxCell id="N02gv27HB-VVJ6MpC-x5-35" style="edgeStyle=none;curved=1;rounded=0;orthogonalLoop=1;jettySize=auto;html=1;fontSize=12;startSize=8;endSize=8;" edge="1" parent="1" source="N02gv27HB-VVJ6MpC-x5-27" target="N02gv27HB-VVJ6MpC-x5-26">
          <mxGeometry relative="1" as="geometry" />
        </mxCell>
        <mxCell id="N02gv27HB-VVJ6MpC-x5-38" style="edgeStyle=none;curved=1;rounded=0;orthogonalLoop=1;jettySize=auto;html=1;entryX=0;entryY=0.5;entryDx=0;entryDy=0;fontSize=12;startSize=8;endSize=8;" edge="1" parent="1" source="N02gv27HB-VVJ6MpC-x5-27" target="N02gv27HB-VVJ6MpC-x5-37">
          <mxGeometry relative="1" as="geometry" />
        </mxCell>
        <mxCell id="N02gv27HB-VVJ6MpC-x5-27" value="API" style="rounded=0;whiteSpace=wrap;html=1;" vertex="1" parent="1">
          <mxGeometry x="479" y="644" width="120" height="60" as="geometry" />
        </mxCell>
        <mxCell id="N02gv27HB-VVJ6MpC-x5-28" value="model" style="rounded=0;whiteSpace=wrap;html=1;" vertex="1" parent="1">
          <mxGeometry x="727" y="640" width="120" height="60" as="geometry" />
        </mxCell>
        <mxCell id="N02gv27HB-VVJ6MpC-x5-29" value="db structure" style="rounded=0;whiteSpace=wrap;html=1;" vertex="1" parent="1">
          <mxGeometry x="241" y="825" width="120" height="60" as="geometry" />
        </mxCell>
        <mxCell id="N02gv27HB-VVJ6MpC-x5-32" style="edgeStyle=none;curved=1;rounded=0;orthogonalLoop=1;jettySize=auto;html=1;fontSize=12;startSize=8;endSize=8;" edge="1" parent="1" source="N02gv27HB-VVJ6MpC-x5-30" target="N02gv27HB-VVJ6MpC-x5-27">
          <mxGeometry relative="1" as="geometry" />
        </mxCell>
        <mxCell id="N02gv27HB-VVJ6MpC-x5-30" value="main app" style="rounded=0;whiteSpace=wrap;html=1;" vertex="1" parent="1">
          <mxGeometry x="477" y="825" width="120" height="60" as="geometry" />
        </mxCell>
        <mxCell id="N02gv27HB-VVJ6MpC-x5-31" value="log producer&lt;div&gt;for kafka&lt;/div&gt;" style="rounded=0;whiteSpace=wrap;html=1;" vertex="1" parent="1">
          <mxGeometry x="727" y="743" width="120" height="60" as="geometry" />
        </mxCell>
        <mxCell id="N02gv27HB-VVJ6MpC-x5-37" value="authentication manager - only for users microservice" style="rounded=0;whiteSpace=wrap;html=1;" vertex="1" parent="1">
          <mxGeometry x="730" y="842" width="120" height="60" as="geometry" />
        </mxCell>
      </root>
    </mxGraphModel>
  </diagram>
</mxfile>
